<?xml version="1.0" standalone="no"?>
<!DOCTYPE svg PUBLIC "-//W3C//DTD SVG 20010904//EN"
 "http://www.w3.org/TR/2001/REC-SVG-20010904/DTD/svg10.dtd">
<svg version="1.0" xmlns="http://www.w3.org/2000/svg"
 width="256.000000pt" height="256.000000pt" viewBox="0 0 256.000000 256.000000"
 preserveAspectRatio="xMidYMid meet">

<g transform="translate(0.000000,256.000000) scale(0.100000,-0.100000)"
fill="#000000" stroke="none">
<path d="M964 1812 c-104 -49 -164 -142 -164 -253 0 -110 48 -193 139 -243
185 -100 411 35 411 245 0 93 -71 203 -158 245 -55 27 -175 30 -228 6z"/>
<path d="M1764 1298 l-55 -52 78 -78 77 -78 53 52 c30 30 53 61 53 73 0 25
-108 135 -133 135 -10 0 -43 -23 -73 -52z"/>
<path d="M787 1196 c-86 -31 -157 -101 -185 -185 -19 -53 -15 -212 4 -240 33
-47 62 -51 377 -51 l293 0 11 107 11 106 92 92 92 92 -39 32 c-68 57 -165 74
-257 46 -62 -19 -179 -19 -231 0 -50 18 -118 18 -168 1z"/>
<path d="M1508 1043 l-147 -148 -3 -80 -3 -80 79 2 80 2 150 150 151 151 -75
75 c-41 41 -77 75 -80 75 -3 0 -71 -66 -152 -147z"/>
</g>
</svg>
